<svg version="1.2" xmlns="http://www.w3.org/2000/svg" viewBox="0 0 62 38" width="62" height="38"><style>.a{fill:#ededed}.b{fill:#61b2e4}.c{fill:#1e50a0;stroke:#1e50a0;stroke-linecap:round;stroke-linejoin:round;stroke-width:2}.d{fill:none;stroke:#f1b31c;stroke-linecap:round;stroke-linejoin:round;stroke-width:1.8}.e{fill:none;stroke:#fff;stroke-linecap:round;stroke-width:2}.f{fill:none;stroke:#d0cfce;stroke-linecap:round;stroke-linejoin:round}.g{fill:none;stroke:#ea5a47;stroke-linecap:round;stroke-linejoin:round;stroke-width:3}.h{fill:none;stroke:#f1b31c;stroke-linecap:round;stroke-linejoin:round}.i{fill:none;stroke:#f1b31c;stroke-linecap:round;stroke-width:2}</style><path fill-rule="evenodd" class="a" d="m4 0h54c2.2 0 4 1.8 4 4v30c0 2.2-1.8 4-4 4h-54c-2.2 0-4-1.8-4-4v-30c0-2.2 1.8-4 4-4z"/><path fill-rule="evenodd" class="b" d="m5.3 0c0 0 56.7 34 56.7 34.2-0.1 1.3-0.8 2.3-1.3 2.7-0.5 0.5-1.2 1.2-3.2 1.1 0 0-57.5-33.9-57.5-33.9 0 0 0.1-2.1 1.3-3 1.8-1.4 4-1.1 4-1.1z"/><path class="c" d="m26.6 17.1h8.8c0 10.3-2.1 10.3-4.4 10.3-2.5 0-4.4 0.1-4.4-10.3z"/><path class="d" d="m31 23.2v3.8"/><path class="e" d="m31 20.3v0.7"/><path class="f" d="m27.1 23.9c-0.5-6.8-0.5-7 4.1-6.9 4.2 0.1 4.2 0.1 3.7 6.9"/><path class="g" d="m26.5 14c3.3-0.9 5.5-0.9 9 0"/><path class="h" d="m25.9 15.4c3.3-0.8 6.7-0.9 10.2 0"/><path class="i" d="m31 10.6v3.7"/><path class="i" d="m24.5 12l1.4 2.9"/><path class="i" d="m37.5 12l-1.4 2.9"/></svg>
